<svg xmlns="http://www.w3.org/2000/svg" xmlns:xlink="http://www.w3.org/1999/xlink" viewBox="0 0 177.19 176.84" xmlns:v="https://vecta.io/nano"><defs><linearGradient id="A" x1="50.85" y1="61.67" x2="177.49" y2="67.8" gradientUnits="userSpaceOnUse"><stop offset="0" stop-color="#0857c3"/><stop offset="1" stop-color="#656bff"/></linearGradient><linearGradient id="B" x1="49.22" y1="95.48" x2="175.86" y2="101.61" xlink:href="#A"/><linearGradient id="C" x1="49.42" y1="91.22" x2="176.06" y2="97.35" xlink:href="#A"/><path id="D" d="M117.89 127.66l-4.58.23c-34.9 0-63.24-28.45-63.85-63.78v.84c0 35.86 28.6 64.94 63.88 64.94 1.45 0 2.88-.11 4.3-.21 0-.11 0-.22.07-.33.08-.57.09-1.12.18-1.69z"/><path id="E" d="M49.46 64.11c.61 35.33 28.95 63.78 63.85 63.78 1.55 0 3.06-.12 4.58-.23A59.38 59.38 0 0 0 49.8 58.89l-.17 2-.17 3.22z"/></defs><path d="M49.43 65v-2c0-1.37.12-2.7.2-4a66.79 66.79 0 0 0-14.71 4 54.93 54.93 0 0 0-30 30c-19.1 47 20.28 91.75 66.44 82.72a58.86 58.86 0 0 0 46.24-46c-1.42.1-2.85.21-4.3.21C78 129.89 49.43 100.81 49.43 65z"/><path d="M49.46 64.11c0-1.08.11-2.14.17-3.2 0-.68.11-1.35.17-2h-.17l-.2 4 .03 1.2z"/><path d="M113.31 0C80.05 0 52.82 25.87 49.8 58.89a59.38 59.38 0 0 1 68.09 68.77c-.09.57-.1 1.12-.21 1.69 0 .11-.05.22-.07.33h.28c33.14-2.4 59.3-30.42 59.3-64.71 0-35.89-28.6-64.97-63.88-64.97z" fill="url(#A)"/><use xlink:href="#D"/><use xlink:href="#D" fill="url(#B)"/><use xlink:href="#E"/><use xlink:href="#E" opacity=".8" fill="url(#C)"/></svg>