<svg xmlns="http://www.w3.org/2000/svg" xmlns:xlink="http://www.w3.org/1999/xlink" viewBox="0 0 177.19 176.84"><defs><style>.cls-1{fill:url(#Dégradé_sans_nom_6);}.cls-2{fill:url(#Dégradé_sans_nom_6-2);}.cls-3{opacity:0.8;fill:url(#Dégradé_sans_nom_6-3);}</style><linearGradient id="Dégradé_sans_nom_6" x1="50.85" y1="61.67" x2="177.49" y2="67.8" gradientUnits="userSpaceOnUse"><stop offset="0" stop-color="#0857c3"/><stop offset="1" stop-color="#656bff"/></linearGradient><linearGradient id="Dégradé_sans_nom_6-2" x1="49.22" y1="95.48" x2="175.86" y2="101.61" xlink:href="#Dégradé_sans_nom_6"/><linearGradient id="Dégradé_sans_nom_6-3" x1="49.42" y1="91.22" x2="176.06" y2="97.35" xlink:href="#Dégradé_sans_nom_6"/></defs><title>logos - Copie</title><g id="Icone"><path d="M49.43,65c0-.29,0-.56,0-.84s0-.78,0-1.16c0-1.37.12-2.7.2-4a66.79,66.79,0,0,0-14.71,4,54.93,54.93,0,0,0-30,30c-19.1,47,20.28,91.75,66.44,82.72a58.86,58.86,0,0,0,46.24-46c-1.42.1-2.85.21-4.3.21C78,129.89,49.43,100.81,49.43,65Z"/><path d="M49.46,64.11c0-1.08.11-2.14.17-3.2,0-.68.11-1.35.17-2l-.17,0c-.08,1.34-.2,2.67-.2,4C49.43,63.33,49.45,63.72,49.46,64.11Z"/><path class="cls-1" d="M113.31,0C80.05,0,52.82,25.87,49.8,58.89a59.38,59.38,0,0,1,68.09,68.77c-.09.57-.1,1.12-.21,1.69,0,.11-.05.22-.07.33l.28,0c33.14-2.4,59.3-30.42,59.3-64.71C177.19,29.08,148.59,0,113.31,0Z"/><path d="M117.89,127.66c-1.52.11-3,.23-4.58.23-34.9,0-63.24-28.45-63.85-63.78,0,.28,0,.55,0,.84,0,35.86,28.6,64.94,63.88,64.94,1.45,0,2.88-.11,4.3-.21,0-.11,0-.22.07-.33C117.79,128.78,117.8,128.23,117.89,127.66Z"/><path class="cls-2" d="M117.89,127.66c-1.52.11-3,.23-4.58.23-34.9,0-63.24-28.45-63.85-63.78,0,.28,0,.55,0,.84,0,35.86,28.6,64.94,63.88,64.94,1.45,0,2.88-.11,4.3-.21,0-.11,0-.22.07-.33C117.79,128.78,117.8,128.23,117.89,127.66Z"/><path d="M49.46,64.11c.61,35.33,28.95,63.78,63.85,63.78,1.55,0,3.06-.12,4.58-.23A59.38,59.38,0,0,0,49.8,58.89c-.06.67-.13,1.34-.17,2C49.57,62,49.49,63,49.46,64.11Z"/><path class="cls-3" d="M49.46,64.11c.61,35.33,28.95,63.78,63.85,63.78,1.55,0,3.06-.12,4.58-.23A59.38,59.38,0,0,0,49.8,58.89c-.06.67-.13,1.34-.17,2C49.57,62,49.49,63,49.46,64.11Z"/></g></svg>