<svg id="Original" xmlns="http://www.w3.org/2000/svg" xmlns:xlink="http://www.w3.org/1999/xlink" viewBox="0 0 819.23 213.99"><defs><style>.cls-1{fill:none;}.cls-2{fill:url(#Dégradé_sans_nom_6);}.cls-3{fill:url(#Dégradé_sans_nom_6-2);}.cls-4{fill:url(#Dégradé_sans_nom_6-3);}.cls-5{opacity:0.8;fill:url(#Dégradé_sans_nom_6-4);}</style><linearGradient id="Dégradé_sans_nom_6" x1="611.69" y1="149.3" x2="668.88" y2="198.97" gradientUnits="userSpaceOnUse"><stop offset="0" stop-color="#0857c3"/><stop offset="1" stop-color="#656bff"/></linearGradient><linearGradient id="Dégradé_sans_nom_6-2" x1="50.85" y1="76.88" x2="177.49" y2="83.01" xlink:href="#Dégradé_sans_nom_6"/><linearGradient id="Dégradé_sans_nom_6-3" x1="49.22" y1="110.69" x2="175.86" y2="116.82" xlink:href="#Dégradé_sans_nom_6"/><linearGradient id="Dégradé_sans_nom_6-4" x1="49.42" y1="106.43" x2="176.06" y2="112.56" xlink:href="#Dégradé_sans_nom_6"/></defs><title>logos - Copie</title><path class="cls-1" d="M642.06,146.59a25.45,25.45,0,0,0-18.13,6.89q-7.32,6.9-8.32,18h53q-1-11.08-8.32-18T642.06,146.59Z"/><path class="cls-1" d="M375.93,150.35a30,30,0,0,0-28.58,0,25.83,25.83,0,0,0-10,10.32,33.68,33.68,0,0,0,0,30.42,25.68,25.68,0,0,0,10,10.31,29.94,29.94,0,0,0,28.58,0,25.15,25.15,0,0,0,9.89-10.31,34.36,34.36,0,0,0,0-30.42A25.3,25.3,0,0,0,375.93,150.35Z"/><polygon points="269.18 36.42 328.73 109.55 345.24 109.55 345.24 1.55 325.34 1.55 325.34 74.68 265.78 1.55 249.27 1.55 249.27 109.55 269.18 109.55 269.18 36.42"/><path d="M427.49,1.55H369V18.36h38.42V74.21q0,19.92-16.83,19.91-12.48,0-21.44-12.35L357.74,95.51A37.25,37.25,0,0,0,372,107a44.21,44.21,0,0,0,19.06,4.09q17.88,0,27.15-9.49t9.26-28.46Z"/><path d="M548.3,97.36v-43h-19V88a43.48,43.48,0,0,1-22.22,5.56,40.58,40.58,0,0,1-20.13-5A35.81,35.81,0,0,1,473.08,75a38,38,0,0,1-5-19.44,38.64,38.64,0,0,1,5-19.75A34.77,34.77,0,0,1,487,22.38a41.92,41.92,0,0,1,20.29-4.79A40.59,40.59,0,0,1,537,29.94l12.65-12.35A48.5,48.5,0,0,0,531,4.47,65.78,65.78,0,0,0,506.33,0a62.43,62.43,0,0,0-30,7.17A53.31,53.31,0,0,0,455.41,27a54.59,54.59,0,0,0-7.56,28.55,54.56,54.56,0,0,0,7.56,28.54,53.43,53.43,0,0,0,20.83,19.83A61.66,61.66,0,0,0,506,111.09a74.8,74.8,0,0,0,22.84-3.54A60.41,60.41,0,0,0,548.3,97.36Z"/><path d="M268.73,150.35a29.35,29.35,0,0,1,14.57-3.62,27.84,27.84,0,0,1,12.37,2.77,23.66,23.66,0,0,1,9.39,8.33l7.53-5.13a28.77,28.77,0,0,0-12-11,38.46,38.46,0,0,0-17.28-3.76,40.3,40.3,0,0,0-19.83,4.83,35.24,35.24,0,0,0-13.73,13.51,38.67,38.67,0,0,0-5,19.62,39.06,39.06,0,0,0,5,19.69,35,35,0,0,0,13.73,13.58A40.19,40.19,0,0,0,283.3,214a38.59,38.59,0,0,0,17.21-3.77,28.59,28.59,0,0,0,12.08-11l-7.53-5.12a23.08,23.08,0,0,1-9.39,8.25A28.48,28.48,0,0,1,283.3,205a29.25,29.25,0,0,1-14.57-3.63,25.56,25.56,0,0,1-10.1-10.23,33.85,33.85,0,0,1,0-30.5A25.54,25.54,0,0,1,268.73,150.35Z"/><path d="M381.13,142.75a41.7,41.7,0,0,0-39,0,35.32,35.32,0,0,0-13.66,13.51,41.21,41.21,0,0,0,0,39.24,35.64,35.64,0,0,0,13.66,13.58,41.1,41.1,0,0,0,39,0,35.17,35.17,0,0,0,13.58-13.58,41.73,41.73,0,0,0,0-39.24A34.86,34.86,0,0,0,381.13,142.75Zm4.69,48.34a25.15,25.15,0,0,1-9.89,10.31,29.94,29.94,0,0,1-28.58,0,25.68,25.68,0,0,1-10-10.31,33.68,33.68,0,0,1,0-30.42,25.83,25.83,0,0,1,10-10.32,30,30,0,0,1,28.58,0,25.3,25.3,0,0,1,9.89,10.32,34.36,34.36,0,0,1,0,30.42Z"/><path d="M458.34,137.92a36.64,36.64,0,0,0-17,3.76,28.12,28.12,0,0,0-11.45,10.6v-13.8h-9.67v74.8h10.1V174q0-12.66,7-19.83T456.49,147q10.8,0,16.64,6.11T479,170.91v42.37h10.09V169.91q0-15.63-8.31-23.82T458.34,137.92Z"/><path d="M554.61,137.92a36.71,36.71,0,0,0-17,3.76,28.25,28.25,0,0,0-11.45,10.6v-13.8H516.5v74.8h10.09V174q0-12.66,7-19.83T552.76,147q10.8,0,16.63,6.11t5.83,17.78v42.37h10.1V169.91q0-15.63-8.32-23.82T554.61,137.92Z"/><path class="cls-2" d="M660.69,142.75a38.48,38.48,0,0,0-37.33,0,34.65,34.65,0,0,0-13.09,13.51,40.12,40.12,0,0,0-4.75,19.62,38.67,38.67,0,0,0,5,19.62,35.28,35.28,0,0,0,13.86,13.58A41.56,41.56,0,0,0,644.76,214a42.05,42.05,0,0,0,16.43-3.13,32.11,32.11,0,0,0,12.43-9.1l-5.68-6.54a27.92,27.92,0,0,1-10.1,7.32A32.25,32.25,0,0,1,645,205q-12.36,0-20.47-7.18t-9-18.84h62.56l.15-3.13a40.43,40.43,0,0,0-4.7-19.69A34.34,34.34,0,0,0,660.69,142.75Zm-45.08,28.72q1-11.08,8.32-18a25.45,25.45,0,0,1,18.13-6.89q10.94,0,18.27,6.89t8.32,18Z"/><path d="M715.36,150.35a29.35,29.35,0,0,1,14.57-3.62,27.84,27.84,0,0,1,12.37,2.77,23.66,23.66,0,0,1,9.39,8.33l7.53-5.13a28.77,28.77,0,0,0-12-11,38.46,38.46,0,0,0-17.28-3.76,40.3,40.3,0,0,0-19.83,4.83,35.24,35.24,0,0,0-13.73,13.51,38.67,38.67,0,0,0-5,19.62,39.06,39.06,0,0,0,5,19.69,35,35,0,0,0,13.73,13.58A40.19,40.19,0,0,0,729.93,214a38.59,38.59,0,0,0,17.21-3.77,28.53,28.53,0,0,0,12.08-11l-7.53-5.12a23.08,23.08,0,0,1-9.39,8.25,28.48,28.48,0,0,1-12.37,2.7,29.25,29.25,0,0,1-14.57-3.63,25.56,25.56,0,0,1-10.1-10.23,33.85,33.85,0,0,1,0-30.5A25.54,25.54,0,0,1,715.36,150.35Z"/><path d="M815.67,201.47a14.87,14.87,0,0,1-5,2.85,18.66,18.66,0,0,1-6,1q-6.26,0-9.6-3.49t-3.34-10.16V147h22.75v-8.54H791.64V122.14h-10.1v16.34H768.18V147h13.36v45.22q0,10.37,5.69,16.06T803.44,214a28.32,28.32,0,0,0,8.74-1.35,19.26,19.26,0,0,0,7.05-3.91Z"/><path d="M49.43,80.16c0-.29,0-.57,0-.85s0-.77,0-1.15c0-1.37.12-2.7.2-4a66.79,66.79,0,0,0-14.71,4,54.93,54.93,0,0,0-30,30c-19.1,47,20.28,91.75,66.44,82.72a58.86,58.86,0,0,0,46.24-46c-1.42.1-2.85.21-4.3.21C78,145.1,49.43,116,49.43,80.16Z"/><path d="M49.46,79.31c0-1.07.11-2.13.17-3.19,0-.68.11-1.35.17-2l-.17,0c-.08,1.34-.2,2.67-.2,4C49.43,78.54,49.45,78.93,49.46,79.31Z"/><path class="cls-3" d="M113.31,15.21c-33.26,0-60.49,25.87-63.51,58.89a59.38,59.38,0,0,1,68.09,68.77c-.09.56-.1,1.12-.21,1.69,0,.11-.05.22-.07.33l.28,0c33.14-2.4,59.3-30.42,59.3-64.71C177.19,44.29,148.59,15.21,113.31,15.21Z"/><path d="M117.89,142.87c-1.52.11-3,.23-4.58.23-34.9,0-63.24-28.45-63.85-63.79,0,.28,0,.56,0,.85,0,35.86,28.6,64.94,63.88,64.94,1.45,0,2.88-.11,4.3-.21,0-.11,0-.22.07-.33C117.79,144,117.8,143.43,117.89,142.87Z"/><path class="cls-4" d="M117.89,142.87c-1.52.11-3,.23-4.58.23-34.9,0-63.24-28.45-63.85-63.79,0,.28,0,.56,0,.85,0,35.86,28.6,64.94,63.88,64.94,1.45,0,2.88-.11,4.3-.21,0-.11,0-.22.07-.33C117.79,144,117.8,143.43,117.89,142.87Z"/><path d="M49.46,79.31c.61,35.34,28.95,63.79,63.85,63.79,1.55,0,3.06-.12,4.58-.23A59.38,59.38,0,0,0,49.8,74.1c-.06.67-.13,1.34-.17,2C49.57,77.18,49.49,78.24,49.46,79.31Z"/><path class="cls-5" d="M49.46,79.31c.61,35.34,28.95,63.79,63.85,63.79,1.55,0,3.06-.12,4.58-.23A59.38,59.38,0,0,0,49.8,74.1c-.06.67-.13,1.34-.17,2C49.57,77.18,49.49,78.24,49.46,79.31Z"/></svg>