<svg xmlns="http://www.w3.org/2000/svg" xmlns:xlink="http://www.w3.org/1999/xlink" viewBox="0 0 819.23 213.99" xmlns:v="https://vecta.io/nano"><defs><linearGradient id="A" x1="611.69" y1="149.3" x2="668.88" y2="198.97" gradientUnits="userSpaceOnUse"><stop offset="0" stop-color="#0857c3"/><stop offset="1" stop-color="#656bff"/></linearGradient><linearGradient id="B" x1="50.85" y1="76.88" x2="177.49" y2="83.01" xlink:href="#A"/><linearGradient id="C" x1="49.22" y1="110.69" x2="175.86" y2="116.82" xlink:href="#A"/><linearGradient id="D" x1="49.42" y1="106.43" x2="176.06" y2="112.56" xlink:href="#A"/><path id="E" d="M117.89 142.87l-4.58.23c-34.9 0-63.24-28.45-63.85-63.79v.85c0 35.86 28.6 64.94 63.88 64.94 1.45 0 2.88-.11 4.3-.21 0-.11 0-.22.07-.33.08-.56.09-1.13.18-1.69z"/><path id="F" d="M49.46 79.31c.61 35.34 28.95 63.79 63.85 63.79 1.55 0 3.06-.12 4.58-.23A59.38 59.38 0 0 0 49.8 74.1l-.17 2-.17 3.21z"/></defs><path d="M269.18 36.42l59.55 73.13h16.51v-108h-19.9v73.13L265.78 1.55h-16.51v108h19.91V36.42zM427.49 1.55H369v16.81h38.42v55.85q0 19.92-16.83 19.91-12.48 0-21.44-12.35l-11.41 13.74A37.25 37.25 0 0 0 372 107a44.21 44.21 0 0 0 19.06 4.09q17.88 0 27.15-9.49 9.27-9.49 9.26-28.46zM548.3 97.36v-43h-19V88a43.48 43.48 0 0 1-22.22 5.56 40.58 40.58 0 0 1-20.13-5A35.81 35.81 0 0 1 473.08 75a38 38 0 0 1-5-19.44 38.64 38.64 0 0 1 5-19.75A34.77 34.77 0 0 1 487 22.38a41.92 41.92 0 0 1 20.29-4.79A40.59 40.59 0 0 1 537 29.94l12.65-12.35A48.5 48.5 0 0 0 531 4.47 65.78 65.78 0 0 0 506.33 0a62.43 62.43 0 0 0-30 7.17A53.31 53.31 0 0 0 455.41 27a54.59 54.59 0 0 0-7.56 28.55 54.56 54.56 0 0 0 7.56 28.54 53.43 53.43 0 0 0 20.83 19.83 61.66 61.66 0 0 0 29.76 7.17 74.8 74.8 0 0 0 22.84-3.54 60.41 60.41 0 0 0 19.46-10.19zm-279.57 52.99a29.35 29.35 0 0 1 14.57-3.62 27.84 27.84 0 0 1 12.37 2.77 23.66 23.66 0 0 1 9.39 8.33l7.53-5.13a28.77 28.77 0 0 0-12-11 38.46 38.46 0 0 0-17.28-3.76 40.3 40.3 0 0 0-19.83 4.83 35.24 35.24 0 0 0-13.73 13.51 38.67 38.67 0 0 0-5 19.62 39.06 39.06 0 0 0 5 19.69 35 35 0 0 0 13.73 13.58A40.19 40.19 0 0 0 283.3 214a38.59 38.59 0 0 0 17.21-3.77 28.59 28.59 0 0 0 12.08-11l-7.53-5.12a23.08 23.08 0 0 1-9.39 8.25A28.48 28.48 0 0 1 283.3 205a29.25 29.25 0 0 1-14.57-3.63 25.56 25.56 0 0 1-10.1-10.23 33.85 33.85 0 0 1 0-30.5 25.54 25.54 0 0 1 10.1-10.29zm112.4-7.6a41.7 41.7 0 0 0-39 0 35.32 35.32 0 0 0-13.66 13.51 41.21 41.21 0 0 0 0 39.24 35.64 35.64 0 0 0 13.66 13.58 41.1 41.1 0 0 0 39 0 35.17 35.17 0 0 0 13.58-13.58 41.73 41.73 0 0 0 0-39.24 34.86 34.86 0 0 0-13.58-13.51zm4.69 48.34a25.15 25.15 0 0 1-9.89 10.31 29.94 29.94 0 0 1-28.58 0 25.68 25.68 0 0 1-10-10.31 33.68 33.68 0 0 1 0-30.42 25.83 25.83 0 0 1 10-10.32 30 30 0 0 1 28.58 0 25.3 25.3 0 0 1 9.89 10.32 34.36 34.36 0 0 1 0 30.42zm72.52-53.17a36.64 36.64 0 0 0-17 3.76 28.12 28.12 0 0 0-11.45 10.6v-13.8h-9.67v74.8h10.1V174q0-12.66 7-19.83 7-7.17 19.17-7.17 10.8 0 16.64 6.11 5.84 6.11 5.87 17.8v42.37h10.09v-43.37q0-15.63-8.31-23.82-8.31-8.19-22.44-8.17zm96.27 0a36.71 36.71 0 0 0-17 3.76 28.25 28.25 0 0 0-11.45 10.6v-13.8h-9.66v74.8h10.09V174q0-12.66 7-19.83 7-7.17 19.17-7.17 10.8 0 16.63 6.11 5.83 6.11 5.83 17.78v42.37h10.1v-43.35q0-15.63-8.32-23.82-8.32-8.19-22.39-8.17z"/><path d="M660.69,142.75a38.48,38.48,0,0,0-37.33,0,34.65,34.65,0,0,0-13.09,13.51,40.12,40.12,0,0,0-4.75,19.62,38.67,38.67,0,0,0,5,19.62,35.28,35.28,0,0,0,13.86,13.58A41.56,41.56,0,0,0,644.76,214a42.05,42.05,0,0,0,16.43-3.13,32.11,32.11,0,0,0,12.43-9.1l-5.68-6.54a27.92,27.92,0,0,1-10.1,7.32A32.25,32.25,0,0,1,645,205q-12.36,0-20.47-7.18t-9-18.84h62.56l.15-3.13a40.43,40.43,0,0,0-4.7-19.69A34.34,34.34,0,0,0,660.69,142.75Zm-45.08,28.72q1-11.08,8.32-18a25.45,25.45,0,0,1,18.13-6.89q10.94,0,18.27,6.89t8.32,18Z" fill="url(#A)"/><path d="M715.36 150.35a29.35 29.35 0 0 1 14.57-3.62 27.84 27.84 0 0 1 12.37 2.77 23.66 23.66 0 0 1 9.39 8.33l7.53-5.13a28.77 28.77 0 0 0-12-11 38.46 38.46 0 0 0-17.28-3.76 40.3 40.3 0 0 0-19.83 4.83 35.24 35.24 0 0 0-13.73 13.51 38.67 38.67 0 0 0-5 19.62 39.06 39.06 0 0 0 5 19.69 35 35 0 0 0 13.73 13.58 40.19 40.19 0 0 0 19.82 4.83 38.59 38.59 0 0 0 17.21-3.77 28.53 28.53 0 0 0 12.08-11l-7.53-5.12a23.08 23.08 0 0 1-9.39 8.25 28.48 28.48 0 0 1-12.37 2.7 29.25 29.25 0 0 1-14.57-3.63 25.56 25.56 0 0 1-10.1-10.23 33.85 33.85 0 0 1 0-30.5 25.54 25.54 0 0 1 10.1-10.35zm100.31 51.12a14.87 14.87 0 0 1-5 2.85 18.66 18.66 0 0 1-6 1q-6.26 0-9.6-3.49-3.34-3.49-3.34-10.16V147h22.75v-8.54h-22.84v-16.32h-10.1v16.34h-13.36V147h13.36v45.22q0 10.37 5.69 16.06 5.69 5.69 16.21 5.72a28.32 28.32 0 0 0 8.74-1.35 19.26 19.26 0 0 0 7.05-3.91zM49.43 80.16v-2c0-1.37.12-2.7.2-4a66.79 66.79 0 0 0-14.71 4 54.93 54.93 0 0 0-30 30c-19.1 47 20.28 91.75 66.44 82.72a58.86 58.86 0 0 0 46.24-46c-1.42.1-2.85.21-4.3.21C78 145.1 49.43 116 49.43 80.16z"/><path d="M49.46 79.31c0-1.07.11-2.13.17-3.19 0-.68.11-1.35.17-2h-.17l-.2 4 .03 1.19z"/><path d="M113.31 15.21c-33.26 0-60.49 25.87-63.51 58.89a59.38 59.38 0 0 1 68.09 68.77c-.09.56-.1 1.12-.21 1.69 0 .11-.05.22-.07.33h.28c33.14-2.4 59.3-30.42 59.3-64.71 0-35.89-28.6-64.97-63.88-64.97z" fill="url(#B)"/><use xlink:href="#E"/><use xlink:href="#E" fill="url(#C)"/><use xlink:href="#F"/><use xlink:href="#F" opacity=".8" fill="url(#D)"/></svg>