
<svg xmlns="http://www.w3.org/2000/svg" width="341.271" height="120.243" viewBox="0 0 341.271 120.243"><defs><style>
@font-face {
  font-family: "Montserrat";
  src: local("Montserrat"),
    url("../fonts/Montserrat-Black.ttf") format("truetype");
}
@font-face {
  font-family: "Montserrat-Regular";
  src: local("Montserrat-Regular"),
    url("../fonts/Montserrat-Regular.ttf") format("truetype");
}
@font-face {
  font-family: "Montserrat-SemiBold";
  src: local("Montserrat-SemiBold"),
    url("../fonts/Montserrat-SemiBold.ttf") format("truetype");
}
       svg{
           font-family: Montserrat-SemiBold;
       }
.a,.b{fill:#1d1d1b;}
.a{font-size:63px;font-family:Montserrat-SemiBold;font-weight:600;}
.b{font-size:57px;font-family:Montserrat-SemiBold;}
.c,.e{fill:#3a42ff;}
.d{opacity:0.9;}
.e{opacity:0.78;}

</style></defs><g transform="translate(-216 -93)"><g transform="translate(216 93)"><text class="a" transform="translate(96.97 61)"><tspan class="a" x="0" y="0">NJG</tspan></text><text class="b" transform="translate(98.398 103.182)"><tspan x="0" y="0">conn</tspan><tspan class="c" y="0">e</tspan><tspan y="0">ct</tspan></text><g class="d" transform="translate(0 46.371)"><circle cx="23.21" cy="23.21" r="23.21" transform="translate(1.336 1.333)"/><path d="M34.044,264.434A24.544,24.544,0,1,1,58.59,239.891,24.573,24.573,0,0,1,34.044,264.434Zm0-46.418a21.875,21.875,0,1,0,21.877,21.875A21.9,21.9,0,0,0,34.044,218.016Z" transform="translate(-9.498 -215.347)"/></g><ellipse class="e" cx="26.385" cy="26.825" rx="26.385" ry="26.825" transform="translate(20.419 21.592)"/></g></g></svg>