<svg xmlns="http://www.w3.org/2000/svg" width="57.27" height="57.373" viewBox="0 0 57.27 57.373"><defs><style>.a{fill:none;stroke:#000;stroke-linecap:round;stroke-linejoin:round;stroke-width:3px;}</style></defs><path class="a" d="M36.683,11.862A12.952,12.952,0,0,1,46.915,22.094M36.683,1.5A23.314,23.314,0,0,1,57.277,22.068M54.687,42.74v7.771a5.181,5.181,0,0,1-5.647,5.181,51.265,51.265,0,0,1-22.355-7.953A50.513,50.513,0,0,1,11.141,32.2,51.265,51.265,0,0,1,3.189,9.738,5.181,5.181,0,0,1,8.344,4.09h7.771A5.181,5.181,0,0,1,21.3,8.546a33.261,33.261,0,0,0,1.813,7.279,5.181,5.181,0,0,1-1.166,5.466l-3.29,3.29A41.447,41.447,0,0,0,34.2,40.123l3.29-3.29a5.181,5.181,0,0,1,5.466-1.166,33.261,33.261,0,0,0,7.279,1.813A5.181,5.181,0,0,1,54.687,42.74Z" transform="translate(-1.666 0.156)"/></svg>