<svg xmlns="http://www.w3.org/2000/svg" width="57.27" height="57.373"  xmlns:v="https://vecta.io/nano"><path d="M35.017 12.018c5.176 1.01 9.222 5.056 10.232 10.232M35.017 1.656c10.827 1.203 19.378 9.743 20.594 20.568m-2.59 20.672v7.771a5.18 5.18 0 0 1-5.647 5.181c-7.971-.866-15.628-3.59-22.355-7.953-6.259-3.976-11.566-9.281-15.544-15.539-4.378-6.759-7.102-14.454-7.952-22.462a5.18 5.18 0 0 1 5.155-5.648h7.771a5.18 5.18 0 0 1 5.185 4.456 33.26 33.26 0 0 0 1.813 7.279 5.18 5.18 0 0 1-1.166 5.466l-3.29 3.29c3.688 6.485 9.058 11.855 15.543 15.542l3.29-3.29a5.18 5.18 0 0 1 5.466-1.166 33.26 33.26 0 0 0 7.279 1.813 5.18 5.18 0 0 1 4.452 5.26z" fill="none" stroke="#000" stroke-linecap="round" stroke-linejoin="round" stroke-width="3"/></svg>